<svg width="594" height="487" viewBox="0 0 594 487" fill="none" xmlns="http://www.w3.org/2000/svg">
<path d="M589.862 156.064C587.342 171.878 583.624 187.386 578.773 202.467C561.333 273.812 510.201 355 472.777 396.371C472.846 396.636 472.815 396.939 472.638 397.21C445.124 426.882 411.478 450.192 374.044 465.518C336.611 480.843 296.29 487.815 255.89 485.948C229.479 486.428 203.244 481.547 178.768 471.599C154.293 461.651 132.085 446.843 113.483 428.068C94.8792 409.292 80.2674 386.938 70.5286 362.355C60.7898 337.772 56.1257 311.47 56.8177 285.033C56.8305 253.516 64.186 222.435 78.3 194.262C92.4139 166.089 112.897 141.599 138.122 122.738C172.022 97.7474 212.988 84.2086 255.088 84.0832H318.01C342.589 84.0649 366.895 78.9226 389.379 68.9839C411.864 59.0452 432.035 44.5279 448.607 26.3566C448.957 25.968 449.423 25.702 449.935 25.5977C450.447 25.4867 450.98 25.5398 451.46 25.7493C451.94 25.9589 452.342 26.3142 452.609 26.7651C452.878 27.2176 452.999 27.7423 452.955 28.2688C450.288 56.5805 440.873 83.8381 425.501 107.752C425.274 108.167 425.171 108.64 425.207 109.113C425.243 109.585 425.416 110.037 425.704 110.413C425.99 110.788 426.379 111.072 426.824 111.231C427.269 111.389 427.749 111.415 428.208 111.305C457.254 104.737 484.354 91.435 507.328 72.4696C530.301 53.5043 548.506 29.4053 560.479 2.11186C560.783 1.62411 561.202 1.21912 561.701 0.93211C562.203 0.648839 562.769 0.5 563.345 0.5C563.921 0.5 564.487 0.648839 564.989 0.93211C565.488 1.21736 565.909 1.62235 566.21 2.11186C590.87 49.4033 599.187 103.54 589.862 156.064Z" fill="url(#paint0_linear_434_73)"/>
<path d="M95.2507 238.5C63.2943 226.523 50.6905 273.629 52.7506 312C56.7506 386.5 120.362 444.893 180.751 471C365.5 530 473.5 395.5 473.5 395.5C473.5 395.5 324.5 498 200.251 345C169.924 307.656 127.207 250.477 95.2507 238.5Z" fill="url(#paint1_linear_434_73)"/>
<path d="M72.7506 201.5C153.251 63.5 251.251 85 338.251 83C287.251 89 264.251 106.5 255.251 115C236.262 132.934 226.642 154.459 218.251 182.5C197.751 251 205.922 298.016 190.729 337.516C183.229 357.016 178.042 371.154 161.729 386.016C139.229 406.516 93.5504 406.721 72.7292 369.516C42.2292 315.016 50.7506 247 72.7506 201.5Z" fill="url(#paint2_linear_434_73)"/>
<path d="M423.751 112.5C494.151 352.1 227.5 474 155 456C329 546 468.251 404.167 489.751 376.5C627.751 193.7 596.584 49.3333 563.751 0C521.351 80.8 452.751 108.667 423.751 112.5Z" fill="url(#paint3_linear_434_73)"/>
<path d="M208.251 106C181.851 101.6 152.917 114.167 141.751 121C182.751 89 242.751 79.5 315.251 84.5C373.251 88.5 430.084 47.1667 451.251 26C459.251 39.2 437.251 88.1667 425.251 111C383 178 344 138.674 297.5 122.5C284.39 117.94 234.167 108.333 208.251 106Z" fill="url(#paint4_linear_434_73)"/>
<defs>
<linearGradient id="paint0_linear_434_73" x1="-155.749" y1="587.5" x2="485.973" y2="-93.106" gradientUnits="userSpaceOnUse">
<stop offset="0.0197238" stop-color="#5C2D91"/>
<stop offset="0.562607" stop-color="#28A3DC" stop-opacity="0.1"/>
<stop offset="1" stop-color="#28A3DC" stop-opacity="0.4"/>
</linearGradient>
<linearGradient id="paint1_linear_434_73" x1="76.3623" y1="30.2415" x2="703.424" y2="349.837" gradientUnits="userSpaceOnUse">
<stop stop-color="#5C2D91"/>
<stop offset="0.541667" stop-color="#28A3DC" stop-opacity="0.1"/>
<stop offset="1" stop-color="#28A3DC" stop-opacity="0.4"/>
</linearGradient>
<linearGradient id="paint2_linear_434_73" x1="87.8465" y1="398.392" x2="370.386" y2="63.3975" gradientUnits="userSpaceOnUse">
<stop stop-color="#5C2D91"/>
<stop offset="0.614583" stop-color="#28A3DC" stop-opacity="0.1"/>
<stop offset="1" stop-color="#28A3DC" stop-opacity="0.4"/>
</linearGradient>
<linearGradient id="paint3_linear_434_73" x1="305.703" y1="28.0748" x2="698.141" y2="139.781" gradientUnits="userSpaceOnUse">
<stop stop-color="#28A3DC"/>
<stop offset="0.614583" stop-color="#28A3DC" stop-opacity="0.1"/>
<stop offset="1" stop-color="#5C2D91" stop-opacity="0.4"/>
</linearGradient>
<linearGradient id="paint4_linear_434_73" x1="155.492" y1="37.6026" x2="446.095" y2="256.56" gradientUnits="userSpaceOnUse">
<stop stop-color="#28A3DC"/>
<stop offset="0.541667" stop-color="#28A3DC" stop-opacity="0.1"/>
<stop offset="1" stop-color="#5C2D91" stop-opacity="0.4"/>
</linearGradient>
</defs>
</svg>
